<?xml version="1.0" encoding="utf-8"?>
<!-- Generator: Adobe Illustrator 19.0.0, SVG Export Plug-In . SVG Version: 6.00 Build 0)  -->
<svg version="1.1" id="Layer_1" xmlns="http://www.w3.org/2000/svg" xmlns:xlink="http://www.w3.org/1999/xlink" x="0px" y="0px"
	 viewBox="14 157 640 480" style="enable-background:new 14 157 640 480;" xml:space="preserve">
<style type="text/css">
	.st0{stroke:#000000;stroke-width:2;stroke-miterlimit:10;}
	.st1{fill:#F4F2F2;stroke:#FFFFFF;stroke-width:2;stroke-miterlimit:10;}
</style>
<rect x="14" y="157" class="st0" width="640" height="480"/>
<g id="XMLID_2_">
	<path id="XMLID_3_" class="st1" d="M83.1,392.2c-0.1,0.5-0.4,0.7-0.9,0.6s-0.7-0.4-0.5-1c0.5-2,1.7-4.2,3.6-6.6s4.3-4.9,7.3-7.5
		c3-2.5,6.4-5,10.3-7.4s8.1-4.5,12.7-6.4s9.4-3.4,14.5-4.5s10.3-1.7,15.7-1.7c1.9,0,3.6,0.2,5.3,0.6c1.6,0.4,3.1,1,4.3,1.7
		s2.2,1.5,2.9,2.5c0.7,0.9,1.1,1.9,1.1,3c0,1.5-0.4,3.1-1.1,4.8c-0.7,1.7-1.6,3.4-2.8,5.1c-1.1,1.7-2.4,3.5-3.9,5.2
		c-1.4,1.8-2.9,3.5-4.3,5.1c-1.4,1.5-2.7,3-4,4.6c-1.3,1.5-2.4,3.1-3.5,4.5c0,0,0,0,0,0c-1,1.5-1.9,2.9-2.5,4.3
		c-0.6,1.4-0.9,2.6-0.9,3.8c0,1,0.3,2.2,0.9,3.4c0.6,1.2,1.6,2.4,3,3.5s3.3,2,5.7,2.7s5.4,1.1,9.1,1.1c4.3,0,9.7-0.6,16.2-1.9
		c6.5-1.2,13.6-3.4,21.4-6.6c0.4-0.2,0.7-0.1,0.9,0.3s0,0.8-0.5,1.1c-7.8,3.2-14.9,5.4-21.5,6.6s-12.1,1.8-16.5,1.8
		c-4,0-7.3-0.4-9.8-1.2c-2.6-0.8-4.6-1.9-6.1-3.1s-2.6-2.6-3.2-4c-0.6-1.4-0.9-2.7-0.9-3.9c0-1.4,0.3-2.8,1-4.2s1.5-2.9,2.5-4.5
		c1-1.5,2.2-3.1,3.6-4.7c1.3-1.6,2.7-3.2,4.2-4.8c1.4-1.6,2.9-3.3,4.3-5c1.4-1.7,2.6-3.3,3.7-4.9c1.1-1.6,1.9-3.2,2.6-4.7
		c0.7-1.5,1-3,1-4.5c0-1.8-1.2-3.3-3.6-4.5c-2.4-1.2-5.2-1.9-8.6-1.9c-5.2,0-10.3,0.6-15.3,1.6c-5,1.1-9.7,2.6-14.2,4.4
		s-8.6,3.9-12.4,6.2s-7.1,4.7-10.1,7.2c-2.9,2.4-5.3,4.8-7.1,7.2C84.8,388.1,83.6,390.3,83.1,392.2z M134.6,369.4
		c0.2-0.3,0.5-0.4,0.9-0.3s0.5,0.4,0.4,0.9c-1.9,4.3-3.7,8.7-5.5,13.2s-3.4,8.7-4.8,12.6s-2.7,7.4-3.7,10.5s-1.7,5.5-2,7.1
		c-0.1,0.4-0.4,0.6-0.9,0.5s-0.7-0.3-0.5-0.7c0.3-1.6,0.9-3.9,2-7c1-3.1,2.3-6.6,3.8-10.6c1.5-4,3.1-8.2,4.9-12.7
		C130.8,378.4,132.7,373.9,134.6,369.4z"/>
	<path id="XMLID_6_" class="st1" d="M199.8,401.8c0.4,0,0.6,0.2,0.6,0.7s-0.2,0.7-0.6,0.7c-0.7,0-1.4,0.1-2.1,0.2
		c-0.7,0.1-1.4,0.3-2,0.6c-0.6,0.2-1.1,0.5-1.5,0.9c-0.4,0.3-0.6,0.7-0.6,1c0,0.6,0.2,0.9,0.7,1.2c0.5,0.2,1,0.4,1.5,0.6
		c0.3,0.1,0.5,0.3,0.5,0.7s-0.2,0.6-0.6,0.6c-1.2,0.1-1.8,0.4-1.8,0.9c0,0.8,1.7,1.1,5.2,1.1c1.4,0,3-0.2,5-0.5s4-0.7,6-1.2
		s4-1.1,5.8-1.8s3.3-1.4,4.5-2.3c0.3-0.2,0.7-0.1,0.9,0.2c0.3,0.3,0.2,0.7-0.1,1c-1.2,0.8-2.7,1.6-4.6,2.3c-1.9,0.7-3.9,1.4-6,1.9
		c-2.1,0.6-4.2,1-6.2,1.3s-3.8,0.5-5.2,0.5c-2,0-3.6-0.2-4.8-0.6s-1.8-1-1.8-2c0-0.3,0.2-0.7,0.5-0.9c0.3-0.3,0.7-0.5,1-0.6
		c-1.2-0.3-1.9-1.1-1.9-2.4c0-0.5,0.2-1.1,0.7-1.6s1.1-1,1.8-1.3c0.7-0.4,1.5-0.7,2.4-0.9C198.2,401.9,199,401.8,199.8,401.8z"/>
	<path id="XMLID_8_" class="st1" d="M227.7,401.8c0.4,0,0.6,0.2,0.6,0.7s-0.2,0.7-0.6,0.7c-0.7,0-1.4,0.1-2.1,0.2
		c-0.7,0.1-1.4,0.3-2,0.6c-0.6,0.2-1.1,0.5-1.5,0.9c-0.4,0.3-0.6,0.7-0.6,1c0,0.6,0.2,0.9,0.7,1.2c0.5,0.2,1,0.4,1.5,0.6
		c0.3,0.1,0.5,0.3,0.5,0.7s-0.2,0.6-0.6,0.6c-1.2,0.1-1.8,0.4-1.8,0.9c0,0.8,1.7,1.1,5.2,1.1c1.4,0,3-0.2,5-0.5s4-0.7,6-1.2
		s4-1.1,5.8-1.8s3.3-1.4,4.5-2.3c0.3-0.2,0.7-0.1,0.9,0.2c0.3,0.3,0.2,0.7-0.1,1c-1.2,0.8-2.7,1.6-4.6,2.3c-1.9,0.7-3.9,1.4-6,1.9
		c-2.1,0.6-4.2,1-6.2,1.3s-3.8,0.5-5.2,0.5c-2,0-3.6-0.2-4.8-0.6s-1.8-1-1.8-2c0-0.3,0.2-0.7,0.5-0.9c0.3-0.3,0.7-0.5,1-0.6
		c-1.2-0.3-1.9-1.1-1.9-2.4c0-0.5,0.2-1.1,0.7-1.6s1.1-1,1.8-1.3c0.7-0.4,1.5-0.7,2.4-0.9C226,401.9,226.8,401.8,227.7,401.8z"/>
	<path id="XMLID_10_" class="st1" d="M249.1,393.6c0.1-0.4,0.4-0.6,0.9-0.5s0.7,0.4,0.5,0.9l-0.3,1.2c5.4-1.1,10.7-2,16.1-2.7
		s11.1-1.1,17.2-1.3c0.5,0,0.8,0.3,0.8,0.8s-0.3,0.7-0.8,0.7c-6.1,0.3-11.9,0.8-17.3,1.4c-5.2,0.7-10.6,1.5-15.9,2.6
		c-0.3,0.1-0.5,0.3-0.6,0.6c-0.1,0.8-0.3,1.6-0.3,2.4c-0.1,1-0.2,2-0.2,2.9c0,1.3,0.1,2.6,0.4,3.8c0.2,1.2,0.7,2.4,1.3,3.4
		s1.4,1.8,2.4,2.5s2.3,1.1,3.9,1.3c0.6,0.1,0.9,0.3,0.8,0.8s-0.4,0.7-1,0.6c-1.8-0.2-3.3-0.7-4.5-1.5c-1.2-0.8-2.1-1.8-2.8-2.9
		s-1.2-2.4-1.4-3.8c-0.3-1.4-0.4-2.8-0.4-4.3c0-1.5,0.1-3,0.4-4.6c0.1-0.5-0.4-0.9-0.9-0.8c-1.5,0.3-3,0.7-4.6,1
		c-1.9,0.4-3.8,0.9-5.8,1.3c-0.5,0.2-0.9,0-1-0.5s0.1-0.9,0.6-0.9c2.1-0.5,4.2-0.9,6.2-1.4c2-0.4,4-0.9,6-1.3c0.1-0.3,0.2-0.7,0.3-1
		C248.9,394.2,249,393.9,249.1,393.6z"/>
	<path id="XMLID_12_" class="st1" d="M299.1,405.1c0.5-0.1,0.8,0,0.9,0.5s-0.1,0.8-0.5,0.9c-3.3,0.8-6.6,1.6-9.9,2.5
		s-6.4,1.9-9.4,2.9v0.8c0,1.6-0.3,3.4-0.9,5.4s-1.5,3.8-2.7,5.6c-1.2,1.7-2.7,3.2-4.5,4.3c-1.8,1.2-4,1.8-6.5,1.8
		c-1.4,0-2.5-0.4-3.4-1.3s-1.3-2-1.3-3.2c0-1.4,0.4-2.8,1.3-4.1c0.9-1.3,2.1-2.5,3.8-3.7c1.6-1.2,3.5-2.3,5.7-3.3
		c2-0.9,4.2-1.8,6.5-2.8c0.3-0.1,0.5-0.5,0.4-0.9c-0.3-0.9-0.7-1.3-1.3-1.3c-1.2,0-2.3,0.2-3.4,0.7c-1.1,0.4-2.3,0.7-3.7,0.7
		c-1.6,0-2.8-0.4-3.7-1.2c-0.9-0.8-1.1-2.1-0.8-3.9c0.1-0.3,0.4-0.5,0.9-0.5c0.4,0,0.6,0.2,0.6,0.7c-0.2,1.2,0,2,0.6,2.6
		s1.4,0.8,2.4,0.8c1.2,0,2.4-0.2,3.5-0.7c1.1-0.4,2.3-0.7,3.6-0.7c1.1,0,2,0.8,2.5,2.2c0.1,0.4,0.5,0.5,0.9,0.4
		c2.8-0.9,5.8-1.8,8.7-2.7C292.6,406.8,295.8,405.9,299.1,405.1z M265.6,428.4c2.3,0,4.2-0.5,5.9-1.6c1.6-1.1,3-2.4,4.1-4
		s1.9-3.3,2.4-5.1s0.8-3.4,0.8-4.8v-0.3c-2.4,0.9-4.6,1.8-6.6,2.8s-3.7,2-5.2,3c-1.5,1.1-2.6,2.2-3.5,3.4c-0.8,1.2-1.2,2.4-1.2,3.6
		c0,0.8,0.3,1.4,0.8,2.1c0.1,0.1,0.1,0.1,0.2,0.2C264,428.1,264.6,428.4,265.6,428.4z"/>
	<path id="XMLID_15_" class="st1" d="M351.9,345.2c0.3-0.3,0.7-0.3,1,0.1c0.3,0.3,0.3,0.6,0,1c-3.1,3.4-5.9,7.4-8.5,12.1
		s-4.8,9.6-6.6,14.7c-1.9,5.1-3.3,10.3-4.3,15.4c-1,5.2-1.5,9.9-1.5,14.2c0,2.5,0.2,4.8,0.6,6.9s0.9,3.9,1.7,5.4
		c0.8,1.5,1.8,2.7,3,3.6s2.7,1.3,4.3,1.3c3.3,0,6.5-0.9,9.5-2.8s5.9-4.3,8.6-7.4c2.7-3,5.2-6.4,7.4-10.2c2.3-3.8,4.3-7.5,6.1-11.2
		c1.8-3.7,3.4-7.2,4.7-10.5c1.3-3.3,2.3-6,3-8.1c0.1-0.3,0.4-0.5,0.9-0.4c0.4,0.1,0.6,0.3,0.6,0.7c-0.2,1.2-0.3,2.5-0.4,4
		s-0.1,3-0.1,4.6c0,3.7,0.3,7.7,0.8,11.9c0.5,4.2,1.4,8.1,2.5,11.6c1.2,3.5,2.7,6.5,4.5,8.8s4,3.5,6.6,3.5c2.1,0,4-0.7,5.7-2
		s3.1-3.1,4.3-5.4c1.2-2.2,2.3-4.8,3-7.7c0.8-2.9,1.4-5.9,1.9-9s0.8-6.2,1-9.3s0.3-6,0.3-8.7c0-1.9-0.1-3.7-0.2-5.3s-0.2-2.9-0.4-4
		c-0.1-0.4,0.1-0.7,0.6-0.8c0.5-0.1,0.8,0.1,0.8,0.6c0.1,1.1,0.3,2.5,0.4,4.1s0.2,3.4,0.2,5.4c0,2.7-0.1,5.7-0.3,9
		c-0.2,3.2-0.6,6.4-1.1,9.6c-0.6,3.2-1.3,6.3-2.1,9.3c-0.9,3-1.9,5.7-3.2,8c-1.3,2.3-2.9,4.1-4.7,5.5c-1.8,1.4-3.9,2.1-6.2,2.1
		c-2.9,0-5.3-1.2-7.3-3.7c-2-2.4-3.6-5.5-4.9-9.2s-2.2-7.7-2.8-12.1c-0.6-4.4-0.9-8.5-0.9-12.3v-2.9c-1,2.6-2.3,5.6-3.7,8.9
		c-1.4,3.3-3.1,6.6-5,10.1c-1.9,3.4-4,6.7-6.2,9.9c-2.2,3.2-4.6,6.1-7.1,8.6s-5.2,4.5-8,6s-5.7,2.3-8.8,2.3c-1.9,0-3.6-0.5-5-1.4
		s-2.6-2.2-3.5-3.9c-0.9-1.6-1.5-3.6-2-5.9c-0.4-2.3-0.6-4.7-0.6-7.4c0-4.4,0.5-9.2,1.5-14.5s2.5-10.5,4.4-15.7s4.2-10.2,6.8-14.9
		C345.8,352.7,348.7,348.6,351.9,345.2z"/>
	<path id="XMLID_17_" class="st1" d="M435.3,405.7c-0.1,0.3-0.4,0.5-0.8,0.5s-0.6-0.3-0.6-0.7c0.1-0.3,0-0.6-0.1-0.9
		s-0.4-0.5-0.9-0.5c-0.6,0-1.1,0.2-1.8,0.5c-0.6,0.3-1.2,0.7-1.8,1.2c-0.6,0.5-1,1-1.4,1.5s-0.6,1-0.6,1.5c0,0.3,0.1,0.4,0.4,0.4
		s0.6-0.2,1.1-0.4c0.4-0.2,0.9-0.5,1.5-0.9c0.5-0.4,1.1-0.8,1.6-1.3c0.4-0.3,0.8-0.5,1-0.4c0.3,0.1,0.5,0.2,0.8,0.5c1,1,2,1.6,3.2,2
		c1.2,0.3,2.2,0.5,3.2,0.5c1.7,0,3.6-0.4,5.6-1.1c2-0.8,3.9-1.6,5.6-2.7c0.5-0.2,0.9-0.1,1.1,0.3s0.1,0.7-0.3,1
		c-1.8,1.1-3.8,2-6,2.8s-4.2,1.2-6.1,1.2c-1.4,0-2.7-0.2-4-0.7c-1.1-0.3-2.2-0.9-3.1-1.7c-0.3-0.2-0.7-0.2-0.9,0
		c-1.5,1.4-3,2.2-4.2,2.4c-1.4,0.2-2.1-0.4-2.1-1.8c0-0.6,0.2-1.3,0.7-2c0.4-0.7,1-1.4,1.7-2s1.4-1.1,2.3-1.5
		c0.8-0.4,1.6-0.6,2.3-0.6c1.1,0,1.8,0.4,2.1,1.1C435.3,404.5,435.4,405.2,435.3,405.7z"/>
	<path id="XMLID_19_" class="st1" d="M458.2,403.2c0.5,0.1,0.8,0.3,0.7,0.8c-0.1,0.4-0.3,0.7-0.7,0.7c-1,0-2.1,0.2-3.1,0.5
		s-2,0.7-2.8,1.1s-1.5,1-2,1.5c0,0,0,0,0,0c-0.7,0.8,0.1,2,1.2,1.8c0.8-0.2,1.7-0.5,2.6-1c1.5-0.8,3.1-2,4.7-3.5s3.3-3.5,4.9-5.8
		s3.1-5.1,4.5-8.1c0.1-0.4,0.4-0.5,0.9-0.4c0.4,0.2,0.6,0.5,0.5,0.9c-1,4-1.4,7.4-1.4,10.1c0,2.4,0.4,4.3,1.1,5.7
		c0.8,1.4,1.9,2.1,3.5,2.1c1.9,0,3.7-0.3,5.4-0.9c1.8-0.6,4.1-1.6,7-3.1c0.5-0.3,0.9-0.2,1,0.3c0.1,0.4,0,0.8-0.4,1
		c-3,1.6-5.5,2.7-7.3,3.3c-1.9,0.6-3.7,0.9-5.7,0.9c-2.1,0-3.7-0.8-4.6-2.5c-1-1.6-1.4-3.9-1.4-6.7c0-0.6,0-1.2,0-1.9
		c0-0.7-0.9-1.1-1.3-0.4c-2.4,3.7-4.9,6.5-7.4,8.4c-3.1,2.3-5.8,3.5-8,3.5c-0.6,0-1-0.2-1.3-0.5s-0.5-0.8-0.5-1.3
		c0-0.7,0.3-1.4,0.9-2.1s1.4-1.4,2.3-2c1-0.6,2-1.1,3.2-1.5C455.7,403.4,457,403.2,458.2,403.2z"/>
	<path id="XMLID_21_" class="st1" d="M487.8,393.3c0.1-0.4,0.4-0.6,0.9-0.6c0.4,0,0.6,0.3,0.6,0.8l-2.4,13c-0.1,0.7,0.7,1.1,1.2,0.6
		c0.5-0.5,1-0.9,1.4-1.2c0.9-0.6,1.8-0.9,2.7-0.9c0.6,0,1.1,0.3,1.5,0.8c0.4,0.6,0.7,1.1,1,1.6c0.3,0.6,0.8,1.3,1.4,2s1.4,1,2.4,1
		c1.9,0,4.6-0.4,8.1-1.3s7-2.2,10.6-4c0.3-0.1,0.6,0,0.8,0.4s0.1,0.7-0.2,0.9c-1.9,1-3.7,1.8-5.6,2.5s-3.7,1.3-5.4,1.7
		c-1.7,0.4-3.3,0.8-4.7,1c-1.4,0.2-2.6,0.4-3.6,0.4c-1.6,0-2.7-0.4-3.4-1.2c-0.7-0.8-1.2-1.7-1.6-2.6c-0.5-1.1-0.9-1.6-1.2-1.6
		c-0.8,0-1.8,0.5-2.9,1.4c-1.1,1-2.4,2.5-3.9,4.7c-0.1,0.3-0.4,0.4-0.8,0.3s-0.5-0.3-0.5-0.7L487.8,393.3z"/>
	<path id="XMLID_23_" class="st1" d="M517.1,406.2c0-0.3,0.2-0.6,0.6-0.7c0.4-0.1,0.7,0.1,0.8,0.5c0,0.3,0.1,0.8,0.3,1.3
		c0.2,0.6,0.4,1.1,0.8,1.6s0.9,1,1.5,1.4s1.4,0.6,2.5,0.6c1,0,1.9-0.3,2.6-0.8c0.7-0.5,1.3-1.1,1.9-1.6c0.5-0.5,1.1-1,1.7-1.5
		c0.5-0.4,1.2-0.7,2-0.7c0.5,0,1.1,0.2,1.7,0.7c0.6,0.4,1.2,1,1.8,1.6c0.8,0.8,1.6,1.5,2.6,2.3s2,1.1,3.1,1.1c1.6,0,2.7-0.4,3.3-1.2
		s0.9-1.7,0.9-2.7c0-0.8-0.1-1.6-0.4-2.4c-0.3-0.8-0.6-1.5-1-2.1c-0.3-0.4-0.2-0.8,0.2-1c0.4-0.3,0.7-0.2,1.1,0.2
		c1.1,1.5,1.6,3.3,1.6,5.4c0,1.4-0.4,2.7-1.2,3.8c-0.8,1.1-2.3,1.6-4.4,1.6c-1.4,0-2.6-0.4-3.8-1.2s-2.1-1.7-3-2.6
		c-0.6-0.5-1-1-1.4-1.3s-0.8-0.5-1-0.5c-0.5,0-0.9,0.2-1.3,0.5c-0.4,0.3-0.8,0.8-1.3,1.2c-0.7,0.7-1.4,1.3-2.2,2
		c-0.8,0.6-1.9,0.9-3.2,0.9s-2.4-0.3-3.2-0.8s-1.5-1.1-2-1.8s-0.8-1.4-1-2.1C517.2,407.1,517.1,406.6,517.1,406.2z"/>
	<path id="XMLID_25_" class="st1" d="M563,405.7c-0.1,0.3-0.4,0.5-0.8,0.5c-0.4,0-0.6-0.3-0.6-0.7c0.1-0.3,0-0.6-0.1-0.9
		s-0.4-0.5-0.9-0.5c-0.6,0-1.1,0.2-1.8,0.5c-0.6,0.3-1.2,0.7-1.8,1.2s-1,1-1.4,1.5s-0.6,1-0.6,1.5c0,0.3,0.1,0.4,0.4,0.4
		c0.3,0,0.6-0.2,1.1-0.4c0.4-0.2,0.9-0.5,1.5-0.9c0.5-0.4,1.1-0.8,1.6-1.3c0.4-0.3,0.8-0.5,1-0.4c0.3,0.1,0.5,0.2,0.8,0.5
		c1,1,2,1.6,3.2,2c1.2,0.3,2.2,0.5,3.2,0.5c1.7,0,3.6-0.4,5.6-1.1c2-0.8,3.9-1.6,5.6-2.7c0.5-0.2,0.9-0.1,1.1,0.3
		c0.2,0.4,0.1,0.7-0.3,1c-1.8,1.1-3.8,2-6,2.8s-4.2,1.2-6.1,1.2c-1.4,0-2.7-0.2-4-0.7c-1.1-0.3-2.2-0.9-3.1-1.7
		c-0.3-0.2-0.7-0.2-0.9,0c-1.5,1.4-3,2.2-4.2,2.4c-1.4,0.2-2.1-0.4-2.1-1.8c0-0.6,0.2-1.3,0.7-2c0.4-0.7,1-1.4,1.7-2
		s1.4-1.1,2.3-1.5c0.8-0.4,1.6-0.6,2.3-0.6c1.1,0,1.8,0.4,2.1,1.1C563,404.5,563.1,405.2,563,405.7z"/>
</g>
</svg>
